inDegrees=no
num_controls=7
num_derivatives=13
num_iterations=200
num_multipliers=7
num_parameters=0
num_slacks=7
num_states=26
objective=5.710659
objective_accelerations=0.406587
objective_balance=0.011675
objective_effort=0.438922
objective_height=4.740080
objective_ligament=0.113395
solver_duration=1690.936161
status=Solve_Succeeded
success=true
DataType=double
version=3
OpenSimVersion=4.4-2022-07-23-0e9fedc
endheader
time	/jointset/ground_pelvis/pelvis_tilt/value	/jointset/ground_pelvis/pelvis_tx/value	/jointset/ground_pelvis/pelvis_ty/value	/jointset/hip_r/hip_flexion_r/value	/jointset/hip_r/hip_adduction_r/value	/jointset/hip_r/hip_rotation_r/value	/jointset/back/lumbar_extension/value	/jointset/patellofemoral_r/patellar_flexion_r/value	/jointset/knee_r/knee_flexion_r/value	/jointset/knee_r/knee_adduction_r/value	/jointset/knee_r/knee_rotation_r/value	/jointset/ankle_r/ankle_angle_r/value	/jointset/subtalar_r/subtalar_angle_r/value	/jointset/ground_pelvis/pelvis_tilt/speed	/jointset/ground_pelvis/pelvis_tx/speed	/jointset/ground_pelvis/pelvis_ty/speed	/jointset/hip_r/hip_flexion_r/speed	/jointset/hip_r/hip_adduction_r/speed	/jointset/hip_r/hip_rotation_r/speed	/jointset/back/lumbar_extension/speed	/jointset/patellofemoral_r/patellar_flexion_r/speed	/jointset/knee_r/knee_flexion_r/speed	/jointset/knee_r/knee_adduction_r/speed	/jointset/knee_r/knee_rotation_r/speed	/jointset/ankle_r/ankle_angle_r/speed	/jointset/subtalar_r/subtalar_angle_r/speed	/forceset/tau_hip_flexion_r	/forceset/tau_hip_adduction_r	/forceset/tau_hip_rotation_r	/forceset/tau_knee_flexion_r	/forceset/tau_ankle_angle_r	/forceset/tau_subtalar_angle_r	/forceset/tau_lumbar_extension	lambda_cid13_p0	lambda_cid14_p0	lambda_cid14_p1	lambda_cid14_p2	lambda_cid14_p3	lambda_cid14_p4	lambda_cid14_p5	/jointset/ground_pelvis/pelvis_tilt/accel	/jointset/ground_pelvis/pelvis_tx/accel	/jointset/ground_pelvis/pelvis_ty/accel	/jointset/hip_r/hip_flexion_r/accel	/jointset/hip_r/hip_adduction_r/accel	/jointset/hip_r/hip_rotation_r/accel	/jointset/back/lumbar_extension/accel	/jointset/patellofemoral_r/patellar_flexion_r/accel	/jointset/knee_r/knee_flexion_r/accel	/jointset/knee_r/knee_adduction_r/accel	/jointset/knee_r/knee_rotation_r/accel	/jointset/ankle_r/ankle_angle_r/accel	/jointset/subtalar_r/subtalar_angle_r/accel	gamma_cid13_p0	gamma_cid14_p0	gamma_cid14_p1	gamma_cid14_p2	gamma_cid14_p3	gamma_cid14_p4	gamma_cid14_p5
0	-0.0009464276105633363	0.1283819104156911	0.9342695041634655	0.1934208783645156	-0.2173416480408848	-0.2477449774932005	-0.2903791543005566	0.2311793314021577	0.2311793314021609	0.1083017547077064	0.1727596414870254	0.08934340440958972	0.07741261951230523	0	0	0	0	0	0	0	0	0	0	0	0	0	0.1160348480068333	-0.04838946023681236	-0.000278655427190119	-0.2267018371554771	0.06682446475073561	-0.06136709108599848	-0.0375447696653484	-29.85547796531373	-25.05204110965253	-25.42924826972125	-1.930673367779122	28.98494882672627	-622.9356312097138	54.36220028586415	-3.258241272378147	-2.563113378751654	-0.7512410324766486	10.46523859412041	0.07656464402071368	1.526494048010794	-6.615896674116764	6.690447630758715	6.690447630758732	-1.927646094202573	0.1810994589835558	-0.1014324174133314	0.04077836994920976	1.336626231592919e-08	1.794358834198724e-08	-7.728760974872806e-08	7.384457010085329e-08	-2.89974052596075e-09	1.082051637479241e-07	-6.092558708654543e-08
0.01	-0.001102903046007145	0.12825541162459	0.9342329528257307	0.193931562907472	-0.2173370525815567	-0.2476687699470246	-0.2907111773370076	0.2315071809860104	0.2315071809860127	0.1082056212670756	0.1727666626574784	0.08933791199875366	0.07741548542282908	-0.03115940385097899	-0.02516086912204674	-0.00728931742824311	0.1016563700254467	0.0008885170993207594	0.01519549586068766	-0.06601140328200357	0.06529193192915447	0.06529193192915328	-0.01908118921038851	0.001388415981466074	-0.00106303323712074	0.0005466617504310817	0.1123873963616826	-0.0532336151873234	-7.933980191455011e-05	-0.2246110175897506	0.06474146741988056	-0.0562811708570751	-0.03405524068655737	-29.85906937225003	-25.42935181872804	-23.19345391972005	-2.39339857572568	27.85968917185155	-623.8818153874607	58.74290383564706	-3.024438475468625	-2.471740894872062	-0.7146129391210752	9.943756140475696	0.09040524445056165	1.509190727131703	-6.534781553662502	6.406865574489309	6.406865574489123	-1.876537903694427	0.1153548668921798	-0.103418683806948	0.05762835371664193	1.640593647728638e-08	1.156361541606828e-08	-8.101932742669311e-08	7.079460860533497e-08	2.495754337900393e-09	3.264508660994514e-08	-5.168900437827791e-08
0.02	-0.001566902226763021	0.1278814706990799	0.9341241411454895	0.1954443951374231	-0.2173244899509223	-0.2474419847678373	-0.2916915182859623	0.2324796098092574	0.2324796098092622	0.1079230394205164	0.1727870964275754	0.08932285327415664	0.07742302160608271	-0.06150474906239729	-0.0494884268817983	-0.01445206850124505	0.2004295373996399	0.001593434261143608	0.03011552660273519	-0.1296635825008013	0.1289158478781274	0.1289158478781261	-0.03728968119027969	0.002682519929492147	-0.001913262752063989	0.000934054545926152	0.1087399447165321	-0.05807777013781632	0.0001199758233715915	-0.2225201980240034	0.062658470089044	-0.05119525062812405	-0.03056571170778582	-29.86960873337275	-25.75361304897447	-20.95705635517754	-2.846298571938931	26.86788105183729	-623.9153392910642	62.94919006479317	-3.095429544465792	-2.396451106292874	-0.7259277614284017	9.888598063869781	0.03984465652112673	1.471401024282774	-6.144051861475477	6.356844434722417	6.356844434722642	-1.753106648103093	0.1622370522955726	-0.05887167297813871	0.008924578961908463	1.944561063864358e-08	5.183642490149312e-09	-8.475104510465818e-08	6.774464710981665e-08	7.891249201761535e-09	-4.291499052803382e-08	-4.24524216700104e-08
0.03	-0.002330777487948907	0.1272684071626646	0.9339441450294919	0.1979308670727088	-0.2173057613906735	-0.247067898675438	-0.2932954046875503	0.2340794738767127	0.2340794738767222	0.1074628323956009	0.1728202852396517	0.08930000595238281	0.0774335800893233	-0.09114176467771264	-0.07298550879198373	-0.02153897727812599	0.2963675731236638	0.002135928442779687	0.04463415388433192	-0.1906471532845044	0.190723979743552	0.1907239797435585	-0.05461503433579645	0.003930298633245156	-0.002649826145545639	0.001160284965921192	0.1032885778866416	-0.05483891960436715	0.0003424644812775355	-0.2185356112488523	0.05992414364274573	-0.05134279663105645	-0.02581175956252573	-29.88673792287097	-26.59514741002296	-21.14728775991149	-2.840179748440383	26.29547048066881	-623.9883005411763	61.67403745383177	-2.878554577055455	-2.305519392662059	-0.698854711053375	9.371816238831071	0.05899416782681871	1.431977685316319	-6.005528006625203	6.0428457805158	6.0428457805168	-1.701755575087652	0.1023209365213061	-0.08008980765909897	0.02686341202962985	2.006850507016302e-08	-1.046343218477104e-09	-7.321718296761421e-08	5.843318457035154e-08	1.226290614111856e-08	-1.107297387177542e-07	-2.687355341631929e-08
0.04	-0.003387166306684659	0.126424536275291	0.9336935233706793	0.2013618013476665	-0.2172820994148372	-0.246550649489178	-0.2954951304609347	0.2362874289064442	0.2362874289064489	0.1068334706537556	0.1728652063701815	0.08926998476965013	0.07744587910446621	-0.120007460572674	-0.0956498970734509	-0.02857717706421828	0.3893220053341792	0.002580117378095364	0.05874814537465865	-0.2488314568604882	0.2505340403315094	0.2505340403315218	-0.07112062457378174	0.005028983621242514	-0.003348034944066086	0.001282160926368549	0.09783721105675482	-0.05160006907093237	0.0005649531391637275	-0.2145510244736839	0.05718981719645175	-0.05149034263400489	-0.02105780741726777	-29.90983460430685	-27.38884545617888	-21.3371349411185	-2.82499354559986	25.83840363441156	-623.2418544380763	60.24136188222882	-2.941165600394805	-2.229912380549473	-0.716185963270659	9.29187736116813	0.02018360725704538	1.390473866028782	-5.584198419931519	5.957230179228997	5.95723017922881	-1.589154066596794	0.1324183091444531	-0.05120075398620319	-0.01194631294772215	2.064156899178891e-08	-7.273236407159343e-09	-6.136856660758037e-08	4.899261891657825e-08	1.661345302017652e-08	-1.783847894033869e-07	-1.116391638849573e-08
0.05	-0.004728831873855191	0.1253581818161635	0.9333725491914785	0.2057081303885679	-0.217254593417244	-0.2458944689714	-0.2982626937621521	0.2390839564959318	0.2390839564959268	0.1060433008030938	0.17292064674481	0.08923328815387092	0.07745878060767275	-0.1481961926291202	-0.1174804134847692	-0.03562349126498035	0.4794583081953963	0.002907157812796581	0.0724173941679418	-0.3042637697221346	0.3084612314904528	0.3084612314904516	-0.08678247885652209	0.006034076103860314	-0.003973099020387871	0.001287419128727948	0.09237973715407538	-0.05066559393767051	0.0007895206638355215	-0.2115671570449548	0.05552357423584546	-0.04995176585413555	-0.01640755399842895	-29.93824422692913	-27.72627325777636	-20.71299410852966	-2.941653040942067	24.93995546965774	-622.3477809938538	60.54491847541412	-2.738302812513258	-2.138530724210275	-0.6997652454662791	8.801684596939836	0.03687190173892763	1.344576638703447	-5.460132669774993	5.663922540093514	5.663922540091579	-1.535078128806333	0.08081294128447455	-0.06542930287789241	0.005150273910105274	1.878412325749649e-08	-1.25943720269373e-08	-4.174612092033551e-08	2.996611570292623e-08	1.86883690757181e-08	-2.30753871106319e-07	7.916541337683381e-09
